<?xml version="1.0" standalone="no"?>
<svg class="" width="1541px" height="972px" viewBox="0 0 1541 972" version="1.1" xmlns="http://www.w3.org/2000/svg" xmlns:xlink="http://www.w3.org/1999/xlink">
    <!-- Generator: Sketch 63.1 (92452) - https://sketch.com -->
    <title>Education Studying</title>
    <desc>Created by Webpixels.</desc>
    <g id="Page-1" stroke="none" stroke-width="1" fill="none" fill-rule="evenodd">
        <g id="education-studying" transform="translate(-248.000000, -488.000000)">
            <g id="Layer_2" transform="translate(249.000000, 491.000000)">
                <path d="M313.3,367.4 C313.3,367.4 249.2,314.1 280.7,254 C312.2,193.9 357.5,224.5 397.2,213.2 C436.9,201.9 448.2,147.4 460.7,118 C473.2,88.5 495.3,67.5 516.3,61.9 C537.3,56.2 580.9,51.1 607.6,87.4 C634.2,123.7 631.4,144.7 672.8,158.3 C714.2,171.9 738.6,152.1 760.7,178.7 C782.8,205.3 750.5,244.5 790.2,272.8 C829.9,301.1 867.9,270.5 896.8,264.3 C925.7,258.1 967.7,247.3 1022.1,317.6 C1076.5,387.9 1065.2,424.2 1066.3,451.4 C1067.4,478.6 1106.6,508.9 1094.6,543.8 C1082.7,578.7 1041.9,649.2 985.7,681.6 C929.5,714 882,682.5 831.8,666.3 C781.6,650.1 760.4,678.2 751,689.2 C741.6,700.2 731.7,729.3 681.5,728.9 C631.2,728.5 609.3,736.8 561.3,727.4 C513.3,718 505.4,694.1 478.9,686.6 C452.4,679 414.9,708.1 372.5,693 C330,677.9 327,652.2 327.4,641.2 C327.8,630.2 359.9,583 354.8,558.3 C349.7,533.6 334.4,510.5 345.4,465.9 C356.4,421.3 349.3,398.5 313.3,367.4 Z" id="Path" fill="#F0F1F6" fill-rule="nonzero"></path>
                <polygon id="Path" fill="#FFFFFF" fill-rule="nonzero" points="1487.3 773.3 1026.4 773.3 1019.7 7.9 1492.9 0.7"></polygon>
                <line x1="971.6" y1="776.7" x2="1538.5" y2="776.7" id="Path" stroke="#CDD4E4" stroke-width="3" stroke-linecap="round" stroke-linejoin="round"></line>
                <line x1="0.8" y1="820.3" x2="271.5" y2="820.3" id="Path" stroke="#CDD4E4" stroke-width="3" stroke-linecap="round" stroke-linejoin="round"></line>
                <line x1="380.2" y1="610.9" x2="272.1" y2="964.6" id="Path" stroke="#283444" stroke-width="7" stroke-linecap="round" stroke-linejoin="round"></line>
                <line x1="245.7" y1="964.6" x2="298.4" y2="964.6" id="Path" stroke="#283444" stroke-width="7" stroke-linecap="round" stroke-linejoin="round"></line>
                <line x1="869" y1="610.9" x2="977.2" y2="964.6" id="Path" stroke="#283444" stroke-width="7" stroke-linecap="round" stroke-linejoin="round"></line>
                <line x1="1003.5" y1="964.6" x2="950.8" y2="964.6" id="Path" stroke="#283444" stroke-width="7" stroke-linecap="round" stroke-linejoin="round"></line>
                <path d="M139,820.3 L133.3,820.3 C79.3,820.3 35.5,776.5 35.5,722.5 L35.5,666.1 L236.8,666.1 L236.8,722.5 C236.8,776.5 193,820.3 139,820.3 Z" id="Path" fill="#CDD4E4" fill-rule="nonzero"></path>
                <line x1="130.2" y1="303.9" x2="130.2" y2="666.1" id="Path" stroke="#37B27F" stroke-width="7" stroke-linecap="round" stroke-linejoin="round"></line>
                <path d="M130.2,602.1 C130.2,602.1 62,585.5 39.3,554.1 C18.1,524.8 20,512.9 26.4,505 C32.8,497.1 54.7,508.4 82.3,543.9 C109.9,579.4 130.2,602.1 130.2,602.1 Z" id="Path" fill="#37B27F" fill-rule="nonzero"></path>
                <path d="M130.2,594.7 C130.2,594.7 152.3,558.4 178.7,549.1 C205.1,539.7 204.2,548.5 204.8,552.3 C205.4,556.2 199.7,568.1 172.8,579.1 C145.8,590.2 130.2,594.7 130.2,594.7 Z" id="Path" fill="#37B27F" fill-rule="nonzero"></path>
                <path d="M130.2,511.4 C130.2,511.4 151.5,470.9 183.5,445.9 C215.5,420.9 232.5,415 245,424.4 C257.5,433.8 221.5,463.5 209,472 C196.6,480.5 160,505.4 130.2,511.4 Z" id="Path" fill="#37B27F" fill-rule="nonzero"></path>
                <path d="M130.2,500.9 C130.2,500.9 86.3,471.7 66.7,449.9 C47.1,428.1 27.9,390.9 40.6,379.6 C53.4,368.3 82.3,410.5 89.4,421.6 C96.5,432.6 119.2,466.3 130.2,500.9 Z" id="Path" fill="#37B27F" fill-rule="nonzero"></path>
                <path d="M130.2,417.4 C130.2,417.4 151,366.9 171,347.5 C191,328 228.6,293.2 232.4,312.9 C237.1,337.1 201.9,363.5 185.2,377.6 C168.5,391.7 130.2,417.4 130.2,417.4 Z" id="Path" fill="#37B27F" fill-rule="nonzero"></path>
                <path d="M130.2,380.8 C130.2,380.8 89.9,356.8 76.9,338.7 C63.9,320.6 51.8,297.9 58.4,290.1 C65,282.3 87,305.4 101.5,327.7 C120.6,357 130.2,380.8 130.2,380.8 Z" id="Path" fill="#37B27F" fill-rule="nonzero"></path>
                <path d="M132.4,316.9 C132.4,316.9 100.4,258.2 101.8,219.7 C103.2,181.1 113.1,177.2 118.2,176.6 C123.3,176 139.5,197.6 138.9,236.4 C138.3,275.2 132.4,316.9 132.4,316.9 Z" id="Path" fill="#37B27F" fill-rule="nonzero"></path>
                <rect id="Rectangle" fill="#F0F1F6" fill-rule="nonzero" x="1045.8" y="31.4" width="29.5" height="121.1"></rect>
                <rect id="Rectangle" fill="#F0F1F6" fill-rule="nonzero" x="1104.8" y="25.9" width="29.5" height="126.6"></rect>
                <rect id="Rectangle" fill="#CDD4E4" fill-rule="nonzero" transform="translate(1177.437420, 95.631325) rotate(-34.220819) translate(-1177.437420, -95.631325) " x="1161.93698" y="41.8797832" width="31.0008892" height="107.503084"></rect>
                <rect id="Rectangle" fill="#CDD4E4" fill-rule="nonzero" x="1075.3" y="45.1" width="29.5" height="107.3"></rect>
                <rect id="Rectangle" fill="#F0F1F6" fill-rule="nonzero" x="1218.9" y="31.4" width="31" height="121.1"></rect>
                <rect id="Rectangle" fill="#F0F1F6" fill-rule="nonzero" x="1279.4" y="33.1" width="33.8" height="119.4"></rect>
                <rect id="Rectangle" fill="#CDD4E4" fill-rule="nonzero" x="1313.2" y="64.2" width="29.1" height="88.3"></rect>
                <rect id="Rectangle" fill="#F0F1F6" fill-rule="nonzero" x="1342.3" y="25.5" width="32.5" height="127"></rect>
                <rect id="Rectangle" fill="#CDD4E4" fill-rule="nonzero" x="1374.8" y="49.3" width="32.5" height="103.2"></rect>
                <rect id="Rectangle" fill="#CDD4E4" fill-rule="nonzero" x="1438.5" y="65.6" width="30" height="86.9"></rect>
                <rect id="Rectangle" fill="#F0F1F6" fill-rule="nonzero" x="1407.2" y="30.8" width="31.3" height="121.7"></rect>
                <rect id="Rectangle" fill="#CDD4E4" fill-rule="nonzero" x="1249.9" y="47.7" width="29.5" height="104.7"></rect>
                <path d="M464.7,476.6 L469.4,476.6 L469.4,473.1 L319,473.1 C313.2,473.1 308.5,477.8 308.5,483.6 L308.5,500 C308.5,505.8 313.2,510.5 319,510.5 L469.4,510.5 L469.4,507 L464.7,507 L464.7,476.6 L464.7,476.6 Z" id="Path" fill="#FDAB00" fill-rule="nonzero"></path>
                <path d="M478.6,514 L482.8,514 L482.8,510.5 L296.3,510.5 C290.5,510.5 285.8,515.2 285.8,521 L285.8,537.4 C285.8,543.2 290.5,547.9 296.3,547.9 L482.8,547.9 L482.8,544.4 L478.6,544.4 L478.6,514 L478.6,514 Z" id="Path" fill="#5900CB" fill-rule="nonzero"></path>
                <path d="M465,551.5 L469.4,551.5 L469.4,548 L306.2,548 C302.2,548 298.9,551.3 298.9,555.3 L298.9,578.1 C298.9,582.1 302.2,585.4 306.2,585.4 L469.4,585.4 L469.4,581.9 L465,581.9 L465,551.5 Z" id="Path" fill="#FD8063" fill-rule="nonzero"></path>
                <path d="M465.4,507 L407,507 C402.4,507 398.7,503.3 398.7,498.7 L398.7,485 C398.7,480.4 402.4,476.7 407,476.7 L465.4,476.7 L465.4,507 Z" id="Path" fill="#FFFFFF" fill-rule="nonzero"></path>
                <path d="M479.3,544.4 L407.4,544.4 C402.8,544.4 399.1,540.7 399.1,536.1 L399.1,522.4 C399.1,517.8 402.8,514.1 407.4,514.1 L479.3,514.1 L479.3,544.4 Z" id="Path" fill="#FFFFFF" fill-rule="nonzero"></path>
                <path d="M465.9,581.8 L407.5,581.8 C402.9,581.8 399.2,578.1 399.2,573.5 L399.2,559.8 C399.2,555.2 402.9,551.5 407.5,551.5 L465.9,551.5 L465.9,581.8 Z" id="Path" fill="#FFFFFF" fill-rule="nonzero"></path>
                <rect id="Rectangle" fill="#CDD4E4" fill-rule="nonzero" x="1038.3" y="188.6" width="31" height="122.1"></rect>
                <rect id="Rectangle" fill="#F0F1F6" fill-rule="nonzero" x="1069.3" y="216.7" width="31" height="93.9"></rect>
                <rect id="Rectangle" fill="#CDD4E4" fill-rule="nonzero" x="1100.2" y="202.4" width="28.7" height="108.3"></rect>
                <rect id="Rectangle" fill="#F0F1F6" fill-rule="nonzero" x="1129" y="185.2" width="30" height="125.5"></rect>
                <rect id="Rectangle" fill="#CDD4E4" fill-rule="nonzero" x="1159" y="202.4" width="30" height="108.3"></rect>
                <rect id="Rectangle" fill="#F0F1F6" fill-rule="nonzero" x="1189.1" y="190.1" width="31.4" height="120.6"></rect>
                <rect id="Rectangle" fill="#CDD4E4" fill-rule="nonzero" transform="translate(1255.696550, 248.415050) rotate(12.761855) translate(-1255.696550, -248.415050) " x="1239.9965" y="192.014855" width="31.4001083" height="112.800389"></rect>
                <rect id="Rectangle" fill="#F0F1F6" fill-rule="nonzero" x="1411.6" y="190.1" width="28" height="120.6"></rect>
                <rect id="Rectangle" fill="#CDD4E4" fill-rule="nonzero" x="1438.5" y="212.6" width="30" height="98.1"></rect>
                <rect id="Rectangle" fill="#F0F1F6" fill-rule="nonzero" x="1274" y="244.6" width="104" height="26.6"></rect>
                <rect id="Rectangle" fill="#CDD4E4" fill-rule="nonzero" x="1283.1" y="271.3" width="119.1" height="39.4"></rect>
                <rect id="Rectangle" fill="#CDD4E4" fill-rule="nonzero" x="1041.3" y="440.3" width="135.7" height="28.5"></rect>
                <rect id="Rectangle" fill="#F0F1F6" fill-rule="nonzero" x="1054.5" y="414.4" width="135.7" height="25.9"></rect>
                <rect id="Rectangle" fill="#CDD4E4" fill-rule="nonzero" x="1038.8" y="385.9" width="128.9" height="28.5"></rect>
                <rect id="Rectangle" fill="#F0F1F6" fill-rule="nonzero" x="1060.4" y="357.3" width="103.9" height="28.5"></rect>
                <rect id="Rectangle" fill="#CDD4E4" fill-rule="nonzero" x="1214.2" y="346.1" width="28.3" height="122.7"></rect>
                <rect id="Rectangle" fill="#CDD4E4" fill-rule="nonzero" x="1277.9" y="358.5" width="33.4" height="110.4"></rect>
                <rect id="Rectangle" fill="#CDD4E4" fill-rule="nonzero" x="1345" y="375.3" width="30.4" height="93.5"></rect>
                <rect id="Rectangle" fill="#F0F1F6" fill-rule="nonzero" x="1242.4" y="328.2" width="35.4" height="140.6"></rect>
                <rect id="Rectangle" fill="#F0F1F6" fill-rule="nonzero" x="1311.3" y="338.3" width="33.6" height="130.6"></rect>
                <rect id="Rectangle" fill="#F0F1F6" fill-rule="nonzero" transform="translate(1431.545425, 406.423495) rotate(40.331576) translate(-1431.545425, -406.423495) " x="1413.8957" y="344.474451" width="35.2994551" height="123.898088"></rect>
                <rect id="Rectangle" fill="#CDD4E4" fill-rule="nonzero" transform="translate(1070.503860, 569.322560) rotate(30.971618) translate(-1070.503860, -569.322560) " x="1057.6042" y="513.724008" width="25.7993282" height="111.197104"></rect>
                <rect id="Rectangle" fill="#F0F1F6" fill-rule="nonzero" x="1111.3" y="499.2" width="35.4" height="127.8"></rect>
                <rect id="Rectangle" fill="#F0F1F6" fill-rule="nonzero" x="1174.7" y="499.2" width="30.4" height="127.8"></rect>
                <rect id="Rectangle" fill="#F0F1F6" fill-rule="nonzero" x="1236.1" y="490.6" width="31.9" height="136.4"></rect>
                <rect id="Rectangle" fill="#CDD4E4" fill-rule="nonzero" x="1146.7" y="515.3" width="28" height="111.7"></rect>
                <rect id="Rectangle" fill="#CDD4E4" fill-rule="nonzero" x="1205.1" y="522.1" width="31" height="104.9"></rect>
                <rect id="Rectangle" fill="#CDD4E4" fill-rule="nonzero" x="1290.9" y="598.5" width="138.3" height="28.5"></rect>
                <rect id="Rectangle" fill="#F0F1F6" fill-rule="nonzero" x="1278.6" y="580.1" width="136.4" height="18.3"></rect>
                <rect id="Rectangle" fill="#CDD4E4" fill-rule="nonzero" x="1284.9" y="552" width="113.4" height="28.2"></rect>
                <rect id="Rectangle" fill="#CDD4E4" fill-rule="nonzero" x="1437.4" y="526.7" width="20" height="100.3"></rect>
                <rect id="Rectangle" fill="#F0F1F6" fill-rule="nonzero" x="1457.5" y="501.3" width="20" height="125.7"></rect>
                <rect id="Rectangle" fill="#CDD4E4" fill-rule="nonzero" x="1454.7" y="648.1" width="22.8" height="125.7"></rect>
                <rect id="Rectangle" fill="#F0F1F6" fill-rule="nonzero" x="1039.8" y="636.5" width="29.5" height="136.8"></rect>
                <rect id="Rectangle" fill="#CDD4E4" fill-rule="nonzero" x="1069.3" y="647.8" width="27.6" height="125.5"></rect>
                <rect id="Rectangle" fill="#CDD4E4" fill-rule="nonzero" x="1121" y="660.1" width="27.6" height="113.2"></rect>
                <rect id="Rectangle" fill="#F0F1F6" fill-rule="nonzero" x="1148.6" y="674.1" width="26.1" height="99.2"></rect>
                <rect id="Rectangle" fill="#F0F1F6" fill-rule="nonzero" transform="translate(1250.838275, 721.206275) rotate(-42.836018) translate(-1250.838275, -721.206275) " x="1237.78832" y="667.606465" width="26.0999073" height="107.199619"></rect>
                <rect id="Rectangle" fill="#CDD4E4" fill-rule="nonzero" x="1174.7" y="648.6" width="27.8" height="124.7"></rect>
                <rect id="Rectangle" fill="#F0F1F6" fill-rule="nonzero" transform="translate(1414.408760, 717.135860) rotate(32.504588) translate(-1414.408760, -717.135860) " x="1401.10795" y="664.332631" width="26.6016268" height="105.606458"></rect>
                <rect id="Rectangle" fill="#F0F1F6" fill-rule="nonzero" x="1096.8" y="634.8" width="24.2" height="138.5"></rect>
                <rect id="Rectangle" fill="#CDD4E4" fill-rule="nonzero" x="1297.4" y="660.5" width="25.1" height="112.8"></rect>
                <rect id="Rectangle" fill="#F0F1F6" fill-rule="nonzero" x="1322.5" y="642.3" width="27" height="131"></rect>
                <rect id="Rectangle" fill="#CDD4E4" fill-rule="nonzero" x="1349.5" y="671.4" width="24.2" height="101.9"></rect>
                <polygon id="Path" stroke="#FDAB00" stroke-width="7" stroke-linecap="round" stroke-linejoin="round" points="1487.3 773.3 1026.4 773.3 1019.7 7.9 1492.9 0.7"></polygon>
                <line x1="1021" y1="152.5" x2="1491.8" y2="152.5" id="Path" stroke="#FDAB00" stroke-width="7" stroke-linecap="round" stroke-linejoin="round"></line>
                <line x1="1022.4" y1="310.7" x2="1490.7" y2="310.7" id="Path" stroke="#FDAB00" stroke-width="7" stroke-linecap="round" stroke-linejoin="round"></line>
                <line x1="1023.7" y1="468.8" x2="1489.5" y2="468.8" id="Path" stroke="#FDAB00" stroke-width="7" stroke-linecap="round" stroke-linejoin="round"></line>
                <line x1="1025.1" y1="627" x2="1488.3" y2="627" id="Path" stroke="#FDAB00" stroke-width="7" stroke-linecap="round" stroke-linejoin="round"></line>
                <polygon id="Path" stroke="#283444" stroke-width="7" fill="#283444" fill-rule="nonzero" stroke-linecap="round" stroke-linejoin="round" points="755.3 392.9 804 365.1 825.6 420.6"></polygon>
                <rect id="Rectangle" fill="#283444" fill-rule="nonzero" x="847.4" y="565.5" width="82.8" height="19.8"></rect>
                <path d="M570.7,382.9 C570.7,382.9 542.5,383.8 539.4,358.5 C536.5,335 546.3,332.5 547.4,322.3 C548.5,312.1 533.5,308.4 535.8,292 C538.1,275.6 552,280.9 550.3,265.1 C548.6,249.2 537,238.7 559.4,223.4 C581.8,208.1 608.1,196 632.7,227.7 C632.7,227.7 638.7,220.2 647,226.5 C655.2,232.7 650.7,238.5 654.3,243.2 C657.9,247.9 664.9,250.2 665.4,259.8 C666,269.4 662,270.2 665.4,277.9 C668.8,285.6 673.3,287 671.4,300.8 C669.5,314.6 674.6,315.5 677.3,322.2 C679.9,328.8 675.8,334.1 675,344.5 C674.2,354.9 679,357.3 677.5,365.1 C674.8,378.7 660.9,383.8 660.9,383.8 L570.7,382.9 Z" id="Path" fill="#EC84C2" fill-rule="nonzero"></path>
                <path d="M804,365.1 L829.3,356.9 C858.7,347.4 888.8,369.3 888.8,400.1 L888.8,565.5" id="Path" stroke="#283444" stroke-width="7" stroke-linecap="round" stroke-linejoin="round"></path>
                <path d="M585.5,353.6 C585.5,353.6 565.8,357.9 534.9,402.9 C504,447.9 493.5,482.8 488.6,501 C486.4,509.3 481.4,543.2 478.2,565.4 C476.6,577 479.8,585.4 479.8,585.4 L729.2,585.4 C729.2,585.4 732.5,567.6 725.7,535.6 C718.8,503 706.8,465.7 700.4,450.2 C695.4,438.1 680.5,408.2 664.5,388.2 C648.5,368.2 635.7,360.8 620.4,354.7 L585.5,353.6 Z" id="Path" fill="#FD8063" fill-rule="nonzero"></path>
                <path d="M497.7,598.1 C497.7,598.1 486.4,616.8 497.7,645.7 C509,674.6 581.3,675 581.3,675 L657.6,664 C657.6,664 713.8,634.6 709,605.7 L497.7,598.1 Z" id="Path" fill="#37B27F" fill-rule="nonzero"></path>
                <polyline id="Path" stroke="#FF562F" stroke-width="3" stroke-linecap="round" stroke-linejoin="round" points="523.5 501.9 531.6 479.4 555.4 428.9"></polyline>
                <polyline id="Path" stroke="#FF562F" stroke-width="3" stroke-linecap="round" stroke-linejoin="round" points="653.1 427.2 671.6 472.6 676.8 493.7"></polyline>
                <path d="M581.3,675 C581.3,675 566.6,628.5 601,618.7 C635.4,608.9 644.9,636.1 655.1,664.4 C665.3,692.8 725.7,858.3 725.7,858.3 L703.8,870.4 C703.8,870.4 696.3,856.7 684.7,836.7 C663.3,799.8 652.6,781.4 640.7,765.3 C621.2,739 614.8,737.5 600.5,714 C590.9,698.3 584.9,684.3 581.3,675 Z" id="Path" fill="#FFDED6" fill-rule="nonzero"></path>
                <path d="M596.8,664 C596.8,664 570.3,668.9 566.2,684.4 C562.1,699.9 581.7,837.8 590.4,877.5 C590.4,877.5 586.2,887.7 613.5,882.4 C613.5,882.4 615.8,798.5 619.9,779.2 C624.1,759.9 630.1,749.7 625.6,711.2 C621,672.7 596.8,664 596.8,664 Z" id="Path" fill="#FFDED6" fill-rule="nonzero"></path>
                <path d="M590.4,877.6 C590.4,877.6 565.8,897.3 552.2,910.1 C538.6,923 539,938.1 539.7,944.5 C540.5,950.9 560.3,957.7 578.2,950.9 C596,944.1 623.6,905.2 623.6,905.2 C623.6,905.2 617.2,879.1 613.8,870.4 C613.8,870.4 612.1,880.7 600.6,881.5 C592.5,882.1 590.4,877.6 590.4,877.6 Z" id="Path" fill="#283444" fill-rule="nonzero"></path>
                <polygon id="Path" fill="#283444" fill-rule="nonzero" points="497.7 507 513.2 585.3 695.2 586.2 711.9 496.3 617.5 522.4 591.4 522.4"></polygon>
                <path d="M505.5,508.3 L525,501.4 C525,501.4 593.2,492.2 605.7,514.1 C605.7,514.1 608.7,503.1 631.2,497.2 C653.7,491.3 689.2,494.4 689.2,494.4 L707.4,497.6 L617.5,522.4 L591.4,522.4 L505.5,508.3 Z" id="Path" fill="#F0F1F6" fill-rule="nonzero"></path>
                <path d="M729.2,561.3 C720.5,548.6 710.9,545.8 703,543.9 L701.1,554.3 C707.1,556.4 709.3,557.4 709.3,557.4 C709.3,557.4 684.7,555.3 673.4,557.4 C662.1,559.5 659.7,575.6 659.9,578.7 C660.1,581.8 663.2,585.2 666.6,585.3 L729,585.3 C729.2,585.3 739.6,576.5 729.2,561.3 Z" id="Path" fill="#FFDED6" fill-rule="nonzero"></path>
                <path d="M478.9,561.3 C487.6,548.6 497.1,545.8 505,544 L507,554.3 C501,556.4 498.7,557.5 498.7,557.5 C498.7,557.5 523.3,555.4 534.6,557.5 C545.9,559.6 548.3,575.7 548.1,578.8 C547.9,581.9 544.8,585.3 541.4,585.4 L479,585.4 C478.9,585.3 468.5,576.5 478.9,561.3 Z" id="Path" fill="#FFDED6" fill-rule="nonzero"></path>
                <rect id="Rectangle" fill="#FFC833" fill-rule="nonzero" x="280.7" y="585.3" width="683.7" height="25.5"></rect>
                <path d="M572.4,258.5 C572.4,258.5 575.4,307.8 595.4,316.9 C615.4,326 630.1,315.3 636.9,290.5 C643.7,265.7 639.5,249.5 639.5,249.5 C639.5,249.5 635.8,243 629.9,240.8 C616.3,235.7 590.9,235.1 572.4,258.5 Z" id="Path" fill="#FFDED6" fill-rule="nonzero"></path>
                <polygon id="Path" fill="#FFDED6" fill-rule="nonzero" points="585.5 353.6 597.8 317.9 614.7 319.3 620.8 357.5 603.1 381.9"></polygon>
                <path d="M697.4,859 C697.4,859 702.8,891.5 702.8,892.4 C702.8,893.3 757.1,916.2 768.8,916.6 C780.4,917 795.1,906.1 789.6,893.3 C781.7,874.9 724.3,854.5 724.3,854.5 C724.3,854.5 705.8,863.4 697.4,859 Z" id="Path" fill="#283444" fill-rule="nonzero"></path>
                <path d="M580,669.9 C580.7,672.9 581.3,675 581.3,675 C584.9,684.3 590.9,698.3 600.5,714 C610.7,730.8 616.8,736.3 626.6,747.6 C630.5,752.2 635.1,757.7 640.7,765.3 C640.7,765.3 655.1,786.6 659.2,793.3 C663,799.7 693.8,852.7 697.2,858.4" id="Path" stroke="#FFFFFF" stroke-width="2" stroke-linecap="round" stroke-linejoin="round"></path>
            </g>
        </g>
    </g>
</svg>